<?xml version="1.0" encoding="utf-8" standalone="no"?>
<!DOCTYPE svg PUBLIC "-//W3C//DTD SVG 1.1//EN"
  "http://www.w3.org/Graphics/SVG/1.1/DTD/svg11.dtd">
<svg xmlns:xlink="http://www.w3.org/1999/xlink" width="576pt" height="720pt" viewBox="0 0 576 720" xmlns="http://www.w3.org/2000/svg" version="1.1">
 <metadata>
  <rdf:RDF xmlns:dc="http://purl.org/dc/elements/1.1/" xmlns:cc="http://creativecommons.org/ns#" xmlns:rdf="http://www.w3.org/1999/02/22-rdf-syntax-ns#">
   <cc:Work>
    <dc:type rdf:resource="http://purl.org/dc/dcmitype/StillImage"/>
    <dc:date>2025-11-07T09:22:04.012443</dc:date>
    <dc:format>image/svg+xml</dc:format>
    <dc:creator>
     <cc:Agent>
      <dc:title>Matplotlib v3.10.7, https://matplotlib.org/</dc:title>
     </cc:Agent>
    </dc:creator>
   </cc:Work>
  </rdf:RDF>
 </metadata>
 <defs>
  <style type="text/css">*{stroke-linejoin: round; stroke-linecap: butt}</style>
 </defs>
 <g id="figure_1">
  <g id="patch_1">
   <path d="M 0 720 
L 576 720 
L 576 0 
L 0 0 
z
" style="fill: #ffffff"/>
  </g>
  <g id="axes_1">
   <g id="patch_2">
    <path d="M 56.18 205.24 
L 565.2 205.24 
L 565.2 10.8 
L 56.18 10.8 
z
" style="fill: #ffffff"/>
   </g>
   <g id="matplotlib.axis_1">
    <g id="xtick_1">
     <g id="line2d_1">
      <defs>
       <path id="ma609494806" d="M 0 0 
L 0 3.5 
" style="stroke: #000000; stroke-width: 0.8"/>
      </defs>
      <g>
       <use xlink:href="#ma609494806" x="79.317273" y="205.24" style="stroke: #000000; stroke-width: 0.8"/>
      </g>
     </g>
     <g id="text_1">
      <!-- 0 -->
      <g transform="translate(76.136023 219.838437) scale(0.1 -0.1)">
       <defs>
        <path id="DejaVuSans-30" d="M 2034 4250 
Q 1547 4250 1301 3770 
Q 1056 3291 1056 2328 
Q 1056 1369 1301 889 
Q 1547 409 2034 409 
Q 2525 409 2770 889 
Q 3016 1369 3016 2328 
Q 3016 3291 2770 3770 
Q 2525 4250 2034 4250 
z
M 2034 4750 
Q 2819 4750 3233 4129 
Q 3647 3509 3647 2328 
Q 3647 1150 3233 529 
Q 2819 -91 2034 -91 
Q 1250 -91 836 529 
Q 422 1150 422 2328 
Q 422 3509 836 4129 
Q 1250 4750 2034 4750 
z
" transform="scale(0.015625)"/>
       </defs>
       <use xlink:href="#DejaVuSans-30"/>
      </g>
     </g>
    </g>
    <g id="xtick_2">
     <g id="line2d_2">
      <g>
       <use xlink:href="#ma609494806" x="171.293353" y="205.24" style="stroke: #000000; stroke-width: 0.8"/>
      </g>
     </g>
     <g id="text_2">
      <!-- 10 -->
      <g transform="translate(164.930853 219.838437) scale(0.1 -0.1)">
       <defs>
        <path id="DejaVuSans-31" d="M 794 531 
L 1825 531 
L 1825 4091 
L 703 3866 
L 703 4441 
L 1819 4666 
L 2450 4666 
L 2450 531 
L 3481 531 
L 3481 0 
L 794 0 
L 794 531 
z
" transform="scale(0.015625)"/>
       </defs>
       <use xlink:href="#DejaVuSans-31"/>
       <use xlink:href="#DejaVuSans-30" transform="translate(63.623047 0)"/>
      </g>
     </g>
    </g>
    <g id="xtick_3">
     <g id="line2d_3">
      <g>
       <use xlink:href="#ma609494806" x="263.269433" y="205.24" style="stroke: #000000; stroke-width: 0.8"/>
      </g>
     </g>
     <g id="text_3">
      <!-- 20 -->
      <g transform="translate(256.906933 219.838437) scale(0.1 -0.1)">
       <defs>
        <path id="DejaVuSans-32" d="M 1228 531 
L 3431 531 
L 3431 0 
L 469 0 
L 469 531 
Q 828 903 1448 1529 
Q 2069 2156 2228 2338 
Q 2531 2678 2651 2914 
Q 2772 3150 2772 3378 
Q 2772 3750 2511 3984 
Q 2250 4219 1831 4219 
Q 1534 4219 1204 4116 
Q 875 4013 500 3803 
L 500 4441 
Q 881 4594 1212 4672 
Q 1544 4750 1819 4750 
Q 2544 4750 2975 4387 
Q 3406 4025 3406 3419 
Q 3406 3131 3298 2873 
Q 3191 2616 2906 2266 
Q 2828 2175 2409 1742 
Q 1991 1309 1228 531 
z
" transform="scale(0.015625)"/>
       </defs>
       <use xlink:href="#DejaVuSans-32"/>
       <use xlink:href="#DejaVuSans-30" transform="translate(63.623047 0)"/>
      </g>
     </g>
    </g>
    <g id="xtick_4">
     <g id="line2d_4">
      <g>
       <use xlink:href="#ma609494806" x="355.245513" y="205.24" style="stroke: #000000; stroke-width: 0.8"/>
      </g>
     </g>
     <g id="text_4">
      <!-- 30 -->
      <g transform="translate(348.883013 219.838437) scale(0.1 -0.1)">
       <defs>
        <path id="DejaVuSans-33" d="M 2597 2516 
Q 3050 2419 3304 2112 
Q 3559 1806 3559 1356 
Q 3559 666 3084 287 
Q 2609 -91 1734 -91 
Q 1441 -91 1130 -33 
Q 819 25 488 141 
L 488 750 
Q 750 597 1062 519 
Q 1375 441 1716 441 
Q 2309 441 2620 675 
Q 2931 909 2931 1356 
Q 2931 1769 2642 2001 
Q 2353 2234 1838 2234 
L 1294 2234 
L 1294 2753 
L 1863 2753 
Q 2328 2753 2575 2939 
Q 2822 3125 2822 3475 
Q 2822 3834 2567 4026 
Q 2313 4219 1838 4219 
Q 1578 4219 1281 4162 
Q 984 4106 628 3988 
L 628 4550 
Q 988 4650 1302 4700 
Q 1616 4750 1894 4750 
Q 2613 4750 3031 4423 
Q 3450 4097 3450 3541 
Q 3450 3153 3228 2886 
Q 3006 2619 2597 2516 
z
" transform="scale(0.015625)"/>
       </defs>
       <use xlink:href="#DejaVuSans-33"/>
       <use xlink:href="#DejaVuSans-30" transform="translate(63.623047 0)"/>
      </g>
     </g>
    </g>
    <g id="xtick_5">
     <g id="line2d_5">
      <g>
       <use xlink:href="#ma609494806" x="447.221592" y="205.24" style="stroke: #000000; stroke-width: 0.8"/>
      </g>
     </g>
     <g id="text_5">
      <!-- 40 -->
      <g transform="translate(440.859092 219.838437) scale(0.1 -0.1)">
       <defs>
        <path id="DejaVuSans-34" d="M 2419 4116 
L 825 1625 
L 2419 1625 
L 2419 4116 
z
M 2253 4666 
L 3047 4666 
L 3047 1625 
L 3713 1625 
L 3713 1100 
L 3047 1100 
L 3047 0 
L 2419 0 
L 2419 1100 
L 313 1100 
L 313 1709 
L 2253 4666 
z
" transform="scale(0.015625)"/>
       </defs>
       <use xlink:href="#DejaVuSans-34"/>
       <use xlink:href="#DejaVuSans-30" transform="translate(63.623047 0)"/>
      </g>
     </g>
    </g>
    <g id="xtick_6">
     <g id="line2d_6">
      <g>
       <use xlink:href="#ma609494806" x="539.197672" y="205.24" style="stroke: #000000; stroke-width: 0.8"/>
      </g>
     </g>
     <g id="text_6">
      <!-- 50 -->
      <g transform="translate(532.835172 219.838437) scale(0.1 -0.1)">
       <defs>
        <path id="DejaVuSans-35" d="M 691 4666 
L 3169 4666 
L 3169 4134 
L 1269 4134 
L 1269 2991 
Q 1406 3038 1543 3061 
Q 1681 3084 1819 3084 
Q 2600 3084 3056 2656 
Q 3513 2228 3513 1497 
Q 3513 744 3044 326 
Q 2575 -91 1722 -91 
Q 1428 -91 1123 -41 
Q 819 9 494 109 
L 494 744 
Q 775 591 1075 516 
Q 1375 441 1709 441 
Q 2250 441 2565 725 
Q 2881 1009 2881 1497 
Q 2881 1984 2565 2268 
Q 2250 2553 1709 2553 
Q 1456 2553 1204 2497 
Q 953 2441 691 2322 
L 691 4666 
z
" transform="scale(0.015625)"/>
       </defs>
       <use xlink:href="#DejaVuSans-35"/>
       <use xlink:href="#DejaVuSans-30" transform="translate(63.623047 0)"/>
      </g>
     </g>
    </g>
    <g id="text_7">
     <!-- Samples at 48000 Hz -->
     <g transform="translate(257.254844 233.516563) scale(0.1 -0.1)">
      <defs>
       <path id="DejaVuSans-53" d="M 3425 4513 
L 3425 3897 
Q 3066 4069 2747 4153 
Q 2428 4238 2131 4238 
Q 1616 4238 1336 4038 
Q 1056 3838 1056 3469 
Q 1056 3159 1242 3001 
Q 1428 2844 1947 2747 
L 2328 2669 
Q 3034 2534 3370 2195 
Q 3706 1856 3706 1288 
Q 3706 609 3251 259 
Q 2797 -91 1919 -91 
Q 1588 -91 1214 -16 
Q 841 59 441 206 
L 441 856 
Q 825 641 1194 531 
Q 1563 422 1919 422 
Q 2459 422 2753 634 
Q 3047 847 3047 1241 
Q 3047 1584 2836 1778 
Q 2625 1972 2144 2069 
L 1759 2144 
Q 1053 2284 737 2584 
Q 422 2884 422 3419 
Q 422 4038 858 4394 
Q 1294 4750 2059 4750 
Q 2388 4750 2728 4690 
Q 3069 4631 3425 4513 
z
" transform="scale(0.015625)"/>
       <path id="DejaVuSans-61" d="M 2194 1759 
Q 1497 1759 1228 1600 
Q 959 1441 959 1056 
Q 959 750 1161 570 
Q 1363 391 1709 391 
Q 2188 391 2477 730 
Q 2766 1069 2766 1631 
L 2766 1759 
L 2194 1759 
z
M 3341 1997 
L 3341 0 
L 2766 0 
L 2766 531 
Q 2569 213 2275 61 
Q 1981 -91 1556 -91 
Q 1019 -91 701 211 
Q 384 513 384 1019 
Q 384 1609 779 1909 
Q 1175 2209 1959 2209 
L 2766 2209 
L 2766 2266 
Q 2766 2663 2505 2880 
Q 2244 3097 1772 3097 
Q 1472 3097 1187 3025 
Q 903 2953 641 2809 
L 641 3341 
Q 956 3463 1253 3523 
Q 1550 3584 1831 3584 
Q 2591 3584 2966 3190 
Q 3341 2797 3341 1997 
z
" transform="scale(0.015625)"/>
       <path id="DejaVuSans-6d" d="M 3328 2828 
Q 3544 3216 3844 3400 
Q 4144 3584 4550 3584 
Q 5097 3584 5394 3201 
Q 5691 2819 5691 2113 
L 5691 0 
L 5113 0 
L 5113 2094 
Q 5113 2597 4934 2840 
Q 4756 3084 4391 3084 
Q 3944 3084 3684 2787 
Q 3425 2491 3425 1978 
L 3425 0 
L 2847 0 
L 2847 2094 
Q 2847 2600 2669 2842 
Q 2491 3084 2119 3084 
Q 1678 3084 1418 2786 
Q 1159 2488 1159 1978 
L 1159 0 
L 581 0 
L 581 3500 
L 1159 3500 
L 1159 2956 
Q 1356 3278 1631 3431 
Q 1906 3584 2284 3584 
Q 2666 3584 2933 3390 
Q 3200 3197 3328 2828 
z
" transform="scale(0.015625)"/>
       <path id="DejaVuSans-70" d="M 1159 525 
L 1159 -1331 
L 581 -1331 
L 581 3500 
L 1159 3500 
L 1159 2969 
Q 1341 3281 1617 3432 
Q 1894 3584 2278 3584 
Q 2916 3584 3314 3078 
Q 3713 2572 3713 1747 
Q 3713 922 3314 415 
Q 2916 -91 2278 -91 
Q 1894 -91 1617 61 
Q 1341 213 1159 525 
z
M 3116 1747 
Q 3116 2381 2855 2742 
Q 2594 3103 2138 3103 
Q 1681 3103 1420 2742 
Q 1159 2381 1159 1747 
Q 1159 1113 1420 752 
Q 1681 391 2138 391 
Q 2594 391 2855 752 
Q 3116 1113 3116 1747 
z
" transform="scale(0.015625)"/>
       <path id="DejaVuSans-6c" d="M 603 4863 
L 1178 4863 
L 1178 0 
L 603 0 
L 603 4863 
z
" transform="scale(0.015625)"/>
       <path id="DejaVuSans-65" d="M 3597 1894 
L 3597 1613 
L 953 1613 
Q 991 1019 1311 708 
Q 1631 397 2203 397 
Q 2534 397 2845 478 
Q 3156 559 3463 722 
L 3463 178 
Q 3153 47 2828 -22 
Q 2503 -91 2169 -91 
Q 1331 -91 842 396 
Q 353 884 353 1716 
Q 353 2575 817 3079 
Q 1281 3584 2069 3584 
Q 2775 3584 3186 3129 
Q 3597 2675 3597 1894 
z
M 3022 2063 
Q 3016 2534 2758 2815 
Q 2500 3097 2075 3097 
Q 1594 3097 1305 2825 
Q 1016 2553 972 2059 
L 3022 2063 
z
" transform="scale(0.015625)"/>
       <path id="DejaVuSans-73" d="M 2834 3397 
L 2834 2853 
Q 2591 2978 2328 3040 
Q 2066 3103 1784 3103 
Q 1356 3103 1142 2972 
Q 928 2841 928 2578 
Q 928 2378 1081 2264 
Q 1234 2150 1697 2047 
L 1894 2003 
Q 2506 1872 2764 1633 
Q 3022 1394 3022 966 
Q 3022 478 2636 193 
Q 2250 -91 1575 -91 
Q 1294 -91 989 -36 
Q 684 19 347 128 
L 347 722 
Q 666 556 975 473 
Q 1284 391 1588 391 
Q 1994 391 2212 530 
Q 2431 669 2431 922 
Q 2431 1156 2273 1281 
Q 2116 1406 1581 1522 
L 1381 1569 
Q 847 1681 609 1914 
Q 372 2147 372 2553 
Q 372 3047 722 3315 
Q 1072 3584 1716 3584 
Q 2034 3584 2315 3537 
Q 2597 3491 2834 3397 
z
" transform="scale(0.015625)"/>
       <path id="DejaVuSans-20" transform="scale(0.015625)"/>
       <path id="DejaVuSans-74" d="M 1172 4494 
L 1172 3500 
L 2356 3500 
L 2356 3053 
L 1172 3053 
L 1172 1153 
Q 1172 725 1289 603 
Q 1406 481 1766 481 
L 2356 481 
L 2356 0 
L 1766 0 
Q 1100 0 847 248 
Q 594 497 594 1153 
L 594 3053 
L 172 3053 
L 172 3500 
L 594 3500 
L 594 4494 
L 1172 4494 
z
" transform="scale(0.015625)"/>
       <path id="DejaVuSans-38" d="M 2034 2216 
Q 1584 2216 1326 1975 
Q 1069 1734 1069 1313 
Q 1069 891 1326 650 
Q 1584 409 2034 409 
Q 2484 409 2743 651 
Q 3003 894 3003 1313 
Q 3003 1734 2745 1975 
Q 2488 2216 2034 2216 
z
M 1403 2484 
Q 997 2584 770 2862 
Q 544 3141 544 3541 
Q 544 4100 942 4425 
Q 1341 4750 2034 4750 
Q 2731 4750 3128 4425 
Q 3525 4100 3525 3541 
Q 3525 3141 3298 2862 
Q 3072 2584 2669 2484 
Q 3125 2378 3379 2068 
Q 3634 1759 3634 1313 
Q 3634 634 3220 271 
Q 2806 -91 2034 -91 
Q 1263 -91 848 271 
Q 434 634 434 1313 
Q 434 1759 690 2068 
Q 947 2378 1403 2484 
z
M 1172 3481 
Q 1172 3119 1398 2916 
Q 1625 2713 2034 2713 
Q 2441 2713 2670 2916 
Q 2900 3119 2900 3481 
Q 2900 3844 2670 4047 
Q 2441 4250 2034 4250 
Q 1625 4250 1398 4047 
Q 1172 3844 1172 3481 
z
" transform="scale(0.015625)"/>
       <path id="DejaVuSans-48" d="M 628 4666 
L 1259 4666 
L 1259 2753 
L 3553 2753 
L 3553 4666 
L 4184 4666 
L 4184 0 
L 3553 0 
L 3553 2222 
L 1259 2222 
L 1259 0 
L 628 0 
L 628 4666 
z
" transform="scale(0.015625)"/>
       <path id="DejaVuSans-7a" d="M 353 3500 
L 3084 3500 
L 3084 2975 
L 922 459 
L 3084 459 
L 3084 0 
L 275 0 
L 275 525 
L 2438 3041 
L 353 3041 
L 353 3500 
z
" transform="scale(0.015625)"/>
      </defs>
      <use xlink:href="#DejaVuSans-53"/>
      <use xlink:href="#DejaVuSans-61" transform="translate(63.476562 0)"/>
      <use xlink:href="#DejaVuSans-6d" transform="translate(124.755859 0)"/>
      <use xlink:href="#DejaVuSans-70" transform="translate(222.167969 0)"/>
      <use xlink:href="#DejaVuSans-6c" transform="translate(285.644531 0)"/>
      <use xlink:href="#DejaVuSans-65" transform="translate(313.427734 0)"/>
      <use xlink:href="#DejaVuSans-73" transform="translate(374.951172 0)"/>
      <use xlink:href="#DejaVuSans-20" transform="translate(427.050781 0)"/>
      <use xlink:href="#DejaVuSans-61" transform="translate(458.837891 0)"/>
      <use xlink:href="#DejaVuSans-74" transform="translate(520.117188 0)"/>
      <use xlink:href="#DejaVuSans-20" transform="translate(559.326172 0)"/>
      <use xlink:href="#DejaVuSans-34" transform="translate(591.113281 0)"/>
      <use xlink:href="#DejaVuSans-38" transform="translate(654.736328 0)"/>
      <use xlink:href="#DejaVuSans-30" transform="translate(718.359375 0)"/>
      <use xlink:href="#DejaVuSans-30" transform="translate(781.982422 0)"/>
      <use xlink:href="#DejaVuSans-30" transform="translate(845.605469 0)"/>
      <use xlink:href="#DejaVuSans-20" transform="translate(909.228516 0)"/>
      <use xlink:href="#DejaVuSans-48" transform="translate(941.015625 0)"/>
      <use xlink:href="#DejaVuSans-7a" transform="translate(1016.210938 0)"/>
     </g>
    </g>
   </g>
   <g id="matplotlib.axis_2">
    <g id="ytick_1">
     <g id="line2d_7">
      <defs>
       <path id="m98b55a6c00" d="M 0 0 
L -3.5 0 
" style="stroke: #000000; stroke-width: 0.8"/>
      </defs>
      <g>
       <use xlink:href="#m98b55a6c00" x="56.18" y="194.5872" style="stroke: #000000; stroke-width: 0.8"/>
      </g>
     </g>
     <g id="text_8">
      <!-- −0.2 -->
      <g transform="translate(24.897188 198.386419) scale(0.1 -0.1)">
       <defs>
        <path id="DejaVuSans-2212" d="M 678 2272 
L 4684 2272 
L 4684 1741 
L 678 1741 
L 678 2272 
z
" transform="scale(0.015625)"/>
        <path id="DejaVuSans-2e" d="M 684 794 
L 1344 794 
L 1344 0 
L 684 0 
L 684 794 
z
" transform="scale(0.015625)"/>
       </defs>
       <use xlink:href="#DejaVuSans-2212"/>
       <use xlink:href="#DejaVuSans-30" transform="translate(83.789062 0)"/>
       <use xlink:href="#DejaVuSans-2e" transform="translate(147.412109 0)"/>
       <use xlink:href="#DejaVuSans-32" transform="translate(179.199219 0)"/>
      </g>
     </g>
    </g>
    <g id="ytick_2">
     <g id="line2d_8">
      <g>
       <use xlink:href="#m98b55a6c00" x="56.18" y="165.42903" style="stroke: #000000; stroke-width: 0.8"/>
      </g>
     </g>
     <g id="text_9">
      <!-- 0.0 -->
      <g transform="translate(33.276875 169.228249) scale(0.1 -0.1)">
       <use xlink:href="#DejaVuSans-30"/>
       <use xlink:href="#DejaVuSans-2e" transform="translate(63.623047 0)"/>
       <use xlink:href="#DejaVuSans-30" transform="translate(95.410156 0)"/>
      </g>
     </g>
    </g>
    <g id="ytick_3">
     <g id="line2d_9">
      <g>
       <use xlink:href="#m98b55a6c00" x="56.18" y="136.27086" style="stroke: #000000; stroke-width: 0.8"/>
      </g>
     </g>
     <g id="text_10">
      <!-- 0.2 -->
      <g transform="translate(33.276875 140.070079) scale(0.1 -0.1)">
       <use xlink:href="#DejaVuSans-30"/>
       <use xlink:href="#DejaVuSans-2e" transform="translate(63.623047 0)"/>
       <use xlink:href="#DejaVuSans-32" transform="translate(95.410156 0)"/>
      </g>
     </g>
    </g>
    <g id="ytick_4">
     <g id="line2d_10">
      <g>
       <use xlink:href="#m98b55a6c00" x="56.18" y="107.112691" style="stroke: #000000; stroke-width: 0.8"/>
      </g>
     </g>
     <g id="text_11">
      <!-- 0.4 -->
      <g transform="translate(33.276875 110.91191) scale(0.1 -0.1)">
       <use xlink:href="#DejaVuSans-30"/>
       <use xlink:href="#DejaVuSans-2e" transform="translate(63.623047 0)"/>
       <use xlink:href="#DejaVuSans-34" transform="translate(95.410156 0)"/>
      </g>
     </g>
    </g>
    <g id="ytick_5">
     <g id="line2d_11">
      <g>
       <use xlink:href="#m98b55a6c00" x="56.18" y="77.954521" style="stroke: #000000; stroke-width: 0.8"/>
      </g>
     </g>
     <g id="text_12">
      <!-- 0.6 -->
      <g transform="translate(33.276875 81.75374) scale(0.1 -0.1)">
       <defs>
        <path id="DejaVuSans-36" d="M 2113 2584 
Q 1688 2584 1439 2293 
Q 1191 2003 1191 1497 
Q 1191 994 1439 701 
Q 1688 409 2113 409 
Q 2538 409 2786 701 
Q 3034 994 3034 1497 
Q 3034 2003 2786 2293 
Q 2538 2584 2113 2584 
z
M 3366 4563 
L 3366 3988 
Q 3128 4100 2886 4159 
Q 2644 4219 2406 4219 
Q 1781 4219 1451 3797 
Q 1122 3375 1075 2522 
Q 1259 2794 1537 2939 
Q 1816 3084 2150 3084 
Q 2853 3084 3261 2657 
Q 3669 2231 3669 1497 
Q 3669 778 3244 343 
Q 2819 -91 2113 -91 
Q 1303 -91 875 529 
Q 447 1150 447 2328 
Q 447 3434 972 4092 
Q 1497 4750 2381 4750 
Q 2619 4750 2861 4703 
Q 3103 4656 3366 4563 
z
" transform="scale(0.015625)"/>
       </defs>
       <use xlink:href="#DejaVuSans-30"/>
       <use xlink:href="#DejaVuSans-2e" transform="translate(63.623047 0)"/>
       <use xlink:href="#DejaVuSans-36" transform="translate(95.410156 0)"/>
      </g>
     </g>
    </g>
    <g id="ytick_6">
     <g id="line2d_12">
      <g>
       <use xlink:href="#m98b55a6c00" x="56.18" y="48.796351" style="stroke: #000000; stroke-width: 0.8"/>
      </g>
     </g>
     <g id="text_13">
      <!-- 0.8 -->
      <g transform="translate(33.276875 52.59557) scale(0.1 -0.1)">
       <use xlink:href="#DejaVuSans-30"/>
       <use xlink:href="#DejaVuSans-2e" transform="translate(63.623047 0)"/>
       <use xlink:href="#DejaVuSans-38" transform="translate(95.410156 0)"/>
      </g>
     </g>
    </g>
    <g id="ytick_7">
     <g id="line2d_13">
      <g>
       <use xlink:href="#m98b55a6c00" x="56.18" y="19.638182" style="stroke: #000000; stroke-width: 0.8"/>
      </g>
     </g>
     <g id="text_14">
      <!-- 1.0 -->
      <g transform="translate(33.276875 23.437401) scale(0.1 -0.1)">
       <use xlink:href="#DejaVuSans-31"/>
       <use xlink:href="#DejaVuSans-2e" transform="translate(63.623047 0)"/>
       <use xlink:href="#DejaVuSans-30" transform="translate(95.410156 0)"/>
      </g>
     </g>
    </g>
    <g id="text_15">
     <!-- Amplitude -->
     <g transform="translate(18.8175 133.642656) rotate(-90) scale(0.1 -0.1)">
      <defs>
       <path id="DejaVuSans-41" d="M 2188 4044 
L 1331 1722 
L 3047 1722 
L 2188 4044 
z
M 1831 4666 
L 2547 4666 
L 4325 0 
L 3669 0 
L 3244 1197 
L 1141 1197 
L 716 0 
L 50 0 
L 1831 4666 
z
" transform="scale(0.015625)"/>
       <path id="DejaVuSans-69" d="M 603 3500 
L 1178 3500 
L 1178 0 
L 603 0 
L 603 3500 
z
M 603 4863 
L 1178 4863 
L 1178 4134 
L 603 4134 
L 603 4863 
z
" transform="scale(0.015625)"/>
       <path id="DejaVuSans-75" d="M 544 1381 
L 544 3500 
L 1119 3500 
L 1119 1403 
Q 1119 906 1312 657 
Q 1506 409 1894 409 
Q 2359 409 2629 706 
Q 2900 1003 2900 1516 
L 2900 3500 
L 3475 3500 
L 3475 0 
L 2900 0 
L 2900 538 
Q 2691 219 2414 64 
Q 2138 -91 1772 -91 
Q 1169 -91 856 284 
Q 544 659 544 1381 
z
M 1991 3584 
L 1991 3584 
z
" transform="scale(0.015625)"/>
       <path id="DejaVuSans-64" d="M 2906 2969 
L 2906 4863 
L 3481 4863 
L 3481 0 
L 2906 0 
L 2906 525 
Q 2725 213 2448 61 
Q 2172 -91 1784 -91 
Q 1150 -91 751 415 
Q 353 922 353 1747 
Q 353 2572 751 3078 
Q 1150 3584 1784 3584 
Q 2172 3584 2448 3432 
Q 2725 3281 2906 2969 
z
M 947 1747 
Q 947 1113 1208 752 
Q 1469 391 1925 391 
Q 2381 391 2643 752 
Q 2906 1113 2906 1747 
Q 2906 2381 2643 2742 
Q 2381 3103 1925 3103 
Q 1469 3103 1208 2742 
Q 947 2381 947 1747 
z
" transform="scale(0.015625)"/>
      </defs>
      <use xlink:href="#DejaVuSans-41"/>
      <use xlink:href="#DejaVuSans-6d" transform="translate(68.408203 0)"/>
      <use xlink:href="#DejaVuSans-70" transform="translate(165.820312 0)"/>
      <use xlink:href="#DejaVuSans-6c" transform="translate(229.296875 0)"/>
      <use xlink:href="#DejaVuSans-69" transform="translate(257.080078 0)"/>
      <use xlink:href="#DejaVuSans-74" transform="translate(284.863281 0)"/>
      <use xlink:href="#DejaVuSans-75" transform="translate(324.072266 0)"/>
      <use xlink:href="#DejaVuSans-64" transform="translate(387.451172 0)"/>
      <use xlink:href="#DejaVuSans-65" transform="translate(450.927734 0)"/>
     </g>
    </g>
   </g>
   <g id="line2d_14">
    <path d="M 79.317273 165.42903 
L 130.975638 165.54001 
L 137.639305 165.63797 
L 141.929989 165.43886 
L 147.545129 165.188603 
L 150.663118 165.3018 
L 158.940965 165.761794 
L 161.594475 165.545802 
L 167.982214 164.91246 
L 170.093065 165.018398 
L 172.489042 165.374092 
L 177.161427 166.118746 
L 178.991751 166.137365 
L 180.789883 165.928516 
L 182.983512 165.431759 
L 186.777526 164.547938 
L 188.405502 164.427439 
L 189.909311 164.538586 
L 191.509695 164.886647 
L 193.666534 165.608673 
L 196.499397 166.522918 
L 197.975613 166.755794 
L 199.290871 166.740104 
L 200.596932 166.500865 
L 202.059351 165.998738 
L 204.298969 164.955996 
L 206.455808 164.038124 
L 207.79406 163.711451 
L 208.957557 163.653698 
L 210.088863 163.82222 
L 211.284552 164.23249 
L 212.705583 164.96971 
L 217.189417 167.482525 
L 218.283932 167.728136 
L 219.281872 167.727315 
L 220.275214 167.501673 
L 221.337538 167.023894 
L 222.583814 166.206441 
L 224.676269 164.514095 
L 226.419216 163.231933 
L 227.541324 162.673231 
L 228.488678 162.441679 
L 229.36705 162.453294 
L 230.236223 162.689528 
L 231.165182 163.178914 
L 232.241302 164.012835 
L 233.680728 165.437317 
L 236.398621 168.164454 
L 237.465543 168.892443 
L 238.343915 169.230973 
L 239.125712 169.301815 
L 239.889113 169.147642 
L 240.684706 168.752146 
L 241.558479 168.060535 
L 242.620803 166.914612 
L 244.161402 164.88116 
L 246.309043 162.09768 
L 247.334577 161.125281 
L 248.16696 160.623626 
L 248.888972 160.436908 
L 249.560398 160.489223 
L 250.24562 160.771428 
L 250.986027 161.331354 
L 251.827608 162.262211 
L 252.866938 163.769508 
L 254.453525 166.517456 
L 256.348233 169.692248 
L 257.355371 170.959526 
L 258.141766 171.615732 
L 258.808593 171.896319 
L 259.415635 171.913953 
L 260.008881 171.701974 
L 260.643516 171.225844 
L 261.360929 170.388843 
L 262.207109 169.036942 
L 263.292427 166.844336 
L 267.31638 158.262037 
L 268.088979 157.331727 
L 268.719015 156.893312 
L 269.261674 156.77205 
L 269.772141 156.884052 
L 270.310202 157.245759 
L 270.912645 157.942869 
L 271.611663 159.122391 
L 272.457843 161.024188 
L 273.538562 164.047413 
L 277.364767 175.263365 
L 278.123569 176.599887 
L 278.739809 177.275625 
L 279.23648 177.518868 
L 279.673366 177.499313 
L 280.114852 177.251632 
L 280.611522 176.693275 
L 281.190972 175.67372 
L 281.876194 173.978112 
L 282.717775 171.247143 
L 283.793895 166.935145 
L 287.592507 151.006634 
L 288.342112 149.097991 
L 288.92616 148.156051 
L 289.376843 147.795245 
L 289.758544 147.755935 
L 290.121849 147.954939 
L 290.521945 148.445346 
L 291.004819 149.421179 
L 291.588868 151.156995 
L 292.283287 153.981337 
L 293.143263 158.506275 
L 294.23318 165.543181 
L 298.073181 191.446292 
L 298.785996 194.347759 
L 299.337852 195.777234 
L 299.742547 196.30812 
L 300.050667 196.396503 
L 300.317398 196.235667 
L 300.639314 195.750691 
L 301.030212 194.705166 
L 301.49929 192.763835 
L 302.07874 189.33049 
L 302.736368 184.005423 
L 303.531962 175.620411 
L 304.46092 163.248877 
L 305.564633 145.473772 
L 307.059244 117.687518 
L 310.250814 57.443871 
L 311.414312 40.1745 
L 312.334072 29.774903 
L 313.092875 23.820725 
L 313.589546 21.3464 
L 314.063223 20.022832 
L 314.385139 19.644056 
L 314.57369 19.708431 
L 314.826624 20.095635 
L 315.194529 21.101475 
L 315.608421 22.908979 
L 316.109691 26.315211 
L 316.790314 32.45606 
L 317.595104 42.219293 
L 318.487272 55.569749 
L 319.742746 77.699596 
L 324.562292 165.697107 
L 325.597023 178.76631 
L 326.461598 186.994692 
L 327.174413 191.823371 
L 327.781455 194.565135 
L 328.273527 195.865877 
L 328.659827 196.337995 
L 328.949551 196.38955 
L 329.234677 196.195518 
L 329.57039 195.668583 
L 330.021073 194.495815 
L 330.591324 192.322655 
L 331.331732 188.519102 
L 332.329672 182.122678 
L 336.358225 154.996325 
L 337.204404 151.368426 
L 337.894225 149.309719 
L 338.455279 148.261516 
L 338.905962 147.831088 
L 339.287663 147.744617 
L 339.655567 147.897415 
L 340.060262 148.32642 
L 340.56613 149.212877 
L 341.186969 150.78769 
L 341.996358 153.507615 
L 343.100071 158.080709 
L 346.379018 172.104618 
L 347.284983 174.803987 
L 348.020791 176.350074 
L 348.627834 177.152595 
L 349.133702 177.48447 
L 349.584385 177.525134 
L 350.035068 177.332399 
L 350.531738 176.858633 
L 351.124984 175.969039 
L 351.851595 174.452085 
L 352.808146 171.901286 
L 354.426925 166.831498 
L 356.183669 161.571026 
L 357.186208 159.231513 
L 357.990999 157.872526 
L 358.657825 157.147275 
L 359.232676 156.826725 
L 359.75234 156.782176 
L 360.272005 156.962147 
L 360.837658 157.402533 
L 361.509084 158.222061 
L 362.327671 159.595718 
L 363.449779 161.953705 
L 366.862091 169.416329 
L 367.781852 170.763924 
L 368.536056 171.503025 
L 369.198284 171.855771 
L 369.800727 171.931517 
L 370.40317 171.778108 
L 371.051602 171.371743 
L 371.810405 170.612732 
L 372.730165 169.356151 
L 374.068417 167.109072 
L 376.593161 162.847948 
L 377.627892 161.565296 
L 378.469473 160.856206 
L 379.205281 160.51249 
L 379.885904 160.431654 
L 380.561929 160.574323 
L 381.297737 160.964081 
L 382.157714 161.691019 
L 383.220037 162.900751 
L 385.110146 165.457622 
L 386.761116 167.521419 
L 387.828039 168.513304 
L 388.711009 169.047456 
L 389.511201 169.28056 
L 390.279201 169.275643 
L 391.070196 169.04428 
L 391.953166 168.544395 
L 393.01549 167.67191 
L 394.634269 166.012693 
L 396.800305 163.849115 
L 397.950006 163.017341 
L 398.915755 162.583155 
L 399.803324 162.423241 
L 400.681696 162.49174 
L 401.610654 162.794461 
L 402.672978 163.383829 
L 404.103206 164.454076 
L 407.239591 166.863962 
L 408.412286 167.442489 
L 409.447016 167.71137 
L 410.440358 167.74061 
L 411.465891 167.544405 
L 412.615592 167.090553 
L 414.133198 166.232495 
L 417.504121 164.260669 
L 418.77799 163.818825 
L 419.923092 163.652374 
L 421.058997 163.711451 
L 422.291476 164.003683 
L 423.81368 164.606841 
L 428.187143 166.482325 
L 429.548389 166.738743 
L 430.854449 166.757438 
L 432.243288 166.548256 
L 433.949444 166.051499 
L 438.506859 164.611623 
L 440.052057 164.435235 
L 441.57886 164.486807 
L 443.317208 164.777695 
L 446.752514 165.65432 
L 448.900156 166.052964 
L 450.684492 166.15755 
L 452.53781 166.037871 
L 455.016565 165.630425 
L 458.828974 165.011487 
L 460.962819 164.912888 
L 463.207035 165.039581 
L 467.64948 165.589802 
L 470.404163 165.777053 
L 473.020883 165.724221 
L 477.449531 165.357186 
L 480.917029 165.190677 
L 484.172983 165.269309 
L 493.60513 165.648178 
L 500.494138 165.466838 
L 507.465925 165.420923 
L 541.47408 165.42903 
L 542.062727 165.42903 
L 542.062727 165.42903 
" clip-path="url(#pc32f2bc3e7)" style="fill: none; stroke: #ff0000; stroke-width: 0.5; stroke-linecap: square"/>
   </g>
   <g id="patch_3">
    <path d="M 56.18 205.24 
L 56.18 10.8 
" style="fill: none; stroke: #000000; stroke-width: 0.8; stroke-linejoin: miter; stroke-linecap: square"/>
   </g>
   <g id="patch_4">
    <path d="M 565.2 205.24 
L 565.2 10.8 
" style="fill: none; stroke: #000000; stroke-width: 0.8; stroke-linejoin: miter; stroke-linecap: square"/>
   </g>
   <g id="patch_5">
    <path d="M 56.18 205.24 
L 565.2 205.24 
" style="fill: none; stroke: #000000; stroke-width: 0.8; stroke-linejoin: miter; stroke-linecap: square"/>
   </g>
   <g id="patch_6">
    <path d="M 56.18 10.8 
L 565.2 10.8 
" style="fill: none; stroke: #000000; stroke-width: 0.8; stroke-linejoin: miter; stroke-linecap: square"/>
   </g>
   <g id="patch_7">
    <path d="M 314.426528 88.538521 
Q 314.426528 73.312487 314.426528 59.204487 
" style="fill: none; stroke: #000000; stroke-linecap: round"/>
    <path d="M 312.426528 63.204487 
L 314.426528 59.204487 
L 316.426528 63.204487 
" style="fill: none; stroke: #000000; stroke-linecap: round"/>
   </g>
   <g id="text_16">
    <!-- 25.56 -->
    <g transform="translate(300.112466 100.132043) scale(0.1 -0.1)">
     <use xlink:href="#DejaVuSans-32"/>
     <use xlink:href="#DejaVuSans-35" transform="translate(63.623047 0)"/>
     <use xlink:href="#DejaVuSans-2e" transform="translate(127.246094 0)"/>
     <use xlink:href="#DejaVuSans-35" transform="translate(159.033203 0)"/>
     <use xlink:href="#DejaVuSans-36" transform="translate(222.65625 0)"/>
    </g>
   </g>
  </g>
  <g id="axes_2">
   <g id="patch_8">
    <path d="M 56.18 441.64 
L 565.2 441.64 
L 565.2 247.2 
L 56.18 247.2 
z
" style="fill: #ffffff"/>
   </g>
   <g id="matplotlib.axis_3">
    <g id="xtick_7">
     <g id="line2d_15">
      <g>
       <use xlink:href="#ma609494806" x="79.317273" y="441.64" style="stroke: #000000; stroke-width: 0.8"/>
      </g>
     </g>
     <g id="text_17">
      <!-- 0.0 -->
      <g transform="translate(71.36571 456.238437) scale(0.1 -0.1)">
       <use xlink:href="#DejaVuSans-30"/>
       <use xlink:href="#DejaVuSans-2e" transform="translate(63.623047 0)"/>
       <use xlink:href="#DejaVuSans-30" transform="translate(95.410156 0)"/>
      </g>
     </g>
    </g>
    <g id="xtick_8">
     <g id="line2d_16">
      <g>
       <use xlink:href="#ma609494806" x="138.271746" y="441.64" style="stroke: #000000; stroke-width: 0.8"/>
      </g>
     </g>
     <g id="text_18">
      <!-- 2.5 -->
      <g transform="translate(130.320184 456.238437) scale(0.1 -0.1)">
       <use xlink:href="#DejaVuSans-32"/>
       <use xlink:href="#DejaVuSans-2e" transform="translate(63.623047 0)"/>
       <use xlink:href="#DejaVuSans-35" transform="translate(95.410156 0)"/>
      </g>
     </g>
    </g>
    <g id="xtick_9">
     <g id="line2d_17">
      <g>
       <use xlink:href="#ma609494806" x="197.22622" y="441.64" style="stroke: #000000; stroke-width: 0.8"/>
      </g>
     </g>
     <g id="text_19">
      <!-- 5.0 -->
      <g transform="translate(189.274658 456.238437) scale(0.1 -0.1)">
       <use xlink:href="#DejaVuSans-35"/>
       <use xlink:href="#DejaVuSans-2e" transform="translate(63.623047 0)"/>
       <use xlink:href="#DejaVuSans-30" transform="translate(95.410156 0)"/>
      </g>
     </g>
    </g>
    <g id="xtick_10">
     <g id="line2d_18">
      <g>
       <use xlink:href="#ma609494806" x="256.180694" y="441.64" style="stroke: #000000; stroke-width: 0.8"/>
      </g>
     </g>
     <g id="text_20">
      <!-- 7.5 -->
      <g transform="translate(248.229131 456.238437) scale(0.1 -0.1)">
       <defs>
        <path id="DejaVuSans-37" d="M 525 4666 
L 3525 4666 
L 3525 4397 
L 1831 0 
L 1172 0 
L 2766 4134 
L 525 4134 
L 525 4666 
z
" transform="scale(0.015625)"/>
       </defs>
       <use xlink:href="#DejaVuSans-37"/>
       <use xlink:href="#DejaVuSans-2e" transform="translate(63.623047 0)"/>
       <use xlink:href="#DejaVuSans-35" transform="translate(95.410156 0)"/>
      </g>
     </g>
    </g>
    <g id="xtick_11">
     <g id="line2d_19">
      <g>
       <use xlink:href="#ma609494806" x="315.135167" y="441.64" style="stroke: #000000; stroke-width: 0.8"/>
      </g>
     </g>
     <g id="text_21">
      <!-- 10.0 -->
      <g transform="translate(304.002355 456.238437) scale(0.1 -0.1)">
       <use xlink:href="#DejaVuSans-31"/>
       <use xlink:href="#DejaVuSans-30" transform="translate(63.623047 0)"/>
       <use xlink:href="#DejaVuSans-2e" transform="translate(127.246094 0)"/>
       <use xlink:href="#DejaVuSans-30" transform="translate(159.033203 0)"/>
      </g>
     </g>
    </g>
    <g id="xtick_12">
     <g id="line2d_20">
      <g>
       <use xlink:href="#ma609494806" x="374.089641" y="441.64" style="stroke: #000000; stroke-width: 0.8"/>
      </g>
     </g>
     <g id="text_22">
      <!-- 12.5 -->
      <g transform="translate(362.956828 456.238437) scale(0.1 -0.1)">
       <use xlink:href="#DejaVuSans-31"/>
       <use xlink:href="#DejaVuSans-32" transform="translate(63.623047 0)"/>
       <use xlink:href="#DejaVuSans-2e" transform="translate(127.246094 0)"/>
       <use xlink:href="#DejaVuSans-35" transform="translate(159.033203 0)"/>
      </g>
     </g>
    </g>
    <g id="xtick_13">
     <g id="line2d_21">
      <g>
       <use xlink:href="#ma609494806" x="433.044115" y="441.64" style="stroke: #000000; stroke-width: 0.8"/>
      </g>
     </g>
     <g id="text_23">
      <!-- 15.0 -->
      <g transform="translate(421.911302 456.238437) scale(0.1 -0.1)">
       <use xlink:href="#DejaVuSans-31"/>
       <use xlink:href="#DejaVuSans-35" transform="translate(63.623047 0)"/>
       <use xlink:href="#DejaVuSans-2e" transform="translate(127.246094 0)"/>
       <use xlink:href="#DejaVuSans-30" transform="translate(159.033203 0)"/>
      </g>
     </g>
    </g>
    <g id="xtick_14">
     <g id="line2d_22">
      <g>
       <use xlink:href="#ma609494806" x="491.998588" y="441.64" style="stroke: #000000; stroke-width: 0.8"/>
      </g>
     </g>
     <g id="text_24">
      <!-- 17.5 -->
      <g transform="translate(480.865776 456.238437) scale(0.1 -0.1)">
       <use xlink:href="#DejaVuSans-31"/>
       <use xlink:href="#DejaVuSans-37" transform="translate(63.623047 0)"/>
       <use xlink:href="#DejaVuSans-2e" transform="translate(127.246094 0)"/>
       <use xlink:href="#DejaVuSans-35" transform="translate(159.033203 0)"/>
      </g>
     </g>
    </g>
    <g id="xtick_15">
     <g id="line2d_23">
      <g>
       <use xlink:href="#ma609494806" x="550.953062" y="441.64" style="stroke: #000000; stroke-width: 0.8"/>
      </g>
     </g>
     <g id="text_25">
      <!-- 20.0 -->
      <g transform="translate(539.820249 456.238437) scale(0.1 -0.1)">
       <use xlink:href="#DejaVuSans-32"/>
       <use xlink:href="#DejaVuSans-30" transform="translate(63.623047 0)"/>
       <use xlink:href="#DejaVuSans-2e" transform="translate(127.246094 0)"/>
       <use xlink:href="#DejaVuSans-30" transform="translate(159.033203 0)"/>
      </g>
     </g>
    </g>
    <g id="text_26">
     <!-- Samples at 96000 Hz -->
     <g transform="translate(257.254844 469.916562) scale(0.1 -0.1)">
      <defs>
       <path id="DejaVuSans-39" d="M 703 97 
L 703 672 
Q 941 559 1184 500 
Q 1428 441 1663 441 
Q 2288 441 2617 861 
Q 2947 1281 2994 2138 
Q 2813 1869 2534 1725 
Q 2256 1581 1919 1581 
Q 1219 1581 811 2004 
Q 403 2428 403 3163 
Q 403 3881 828 4315 
Q 1253 4750 1959 4750 
Q 2769 4750 3195 4129 
Q 3622 3509 3622 2328 
Q 3622 1225 3098 567 
Q 2575 -91 1691 -91 
Q 1453 -91 1209 -44 
Q 966 3 703 97 
z
M 1959 2075 
Q 2384 2075 2632 2365 
Q 2881 2656 2881 3163 
Q 2881 3666 2632 3958 
Q 2384 4250 1959 4250 
Q 1534 4250 1286 3958 
Q 1038 3666 1038 3163 
Q 1038 2656 1286 2365 
Q 1534 2075 1959 2075 
z
" transform="scale(0.015625)"/>
      </defs>
      <use xlink:href="#DejaVuSans-53"/>
      <use xlink:href="#DejaVuSans-61" transform="translate(63.476562 0)"/>
      <use xlink:href="#DejaVuSans-6d" transform="translate(124.755859 0)"/>
      <use xlink:href="#DejaVuSans-70" transform="translate(222.167969 0)"/>
      <use xlink:href="#DejaVuSans-6c" transform="translate(285.644531 0)"/>
      <use xlink:href="#DejaVuSans-65" transform="translate(313.427734 0)"/>
      <use xlink:href="#DejaVuSans-73" transform="translate(374.951172 0)"/>
      <use xlink:href="#DejaVuSans-20" transform="translate(427.050781 0)"/>
      <use xlink:href="#DejaVuSans-61" transform="translate(458.837891 0)"/>
      <use xlink:href="#DejaVuSans-74" transform="translate(520.117188 0)"/>
      <use xlink:href="#DejaVuSans-20" transform="translate(559.326172 0)"/>
      <use xlink:href="#DejaVuSans-39" transform="translate(591.113281 0)"/>
      <use xlink:href="#DejaVuSans-36" transform="translate(654.736328 0)"/>
      <use xlink:href="#DejaVuSans-30" transform="translate(718.359375 0)"/>
      <use xlink:href="#DejaVuSans-30" transform="translate(781.982422 0)"/>
      <use xlink:href="#DejaVuSans-30" transform="translate(845.605469 0)"/>
      <use xlink:href="#DejaVuSans-20" transform="translate(909.228516 0)"/>
      <use xlink:href="#DejaVuSans-48" transform="translate(941.015625 0)"/>
      <use xlink:href="#DejaVuSans-7a" transform="translate(1016.210938 0)"/>
     </g>
    </g>
   </g>
   <g id="matplotlib.axis_4">
    <g id="ytick_8">
     <g id="line2d_24">
      <g>
       <use xlink:href="#m98b55a6c00" x="56.18" y="437.981313" style="stroke: #000000; stroke-width: 0.8"/>
      </g>
     </g>
     <g id="text_27">
      <!-- −0.2 -->
      <g transform="translate(24.897188 441.780531) scale(0.1 -0.1)">
       <use xlink:href="#DejaVuSans-2212"/>
       <use xlink:href="#DejaVuSans-30" transform="translate(83.789062 0)"/>
       <use xlink:href="#DejaVuSans-2e" transform="translate(147.412109 0)"/>
       <use xlink:href="#DejaVuSans-32" transform="translate(179.199219 0)"/>
      </g>
     </g>
    </g>
    <g id="ytick_9">
     <g id="line2d_25">
      <g>
       <use xlink:href="#m98b55a6c00" x="56.18" y="407.657458" style="stroke: #000000; stroke-width: 0.8"/>
      </g>
     </g>
     <g id="text_28">
      <!-- 0.0 -->
      <g transform="translate(33.276875 411.456676) scale(0.1 -0.1)">
       <use xlink:href="#DejaVuSans-30"/>
       <use xlink:href="#DejaVuSans-2e" transform="translate(63.623047 0)"/>
       <use xlink:href="#DejaVuSans-30" transform="translate(95.410156 0)"/>
      </g>
     </g>
    </g>
    <g id="ytick_10">
     <g id="line2d_26">
      <g>
       <use xlink:href="#m98b55a6c00" x="56.18" y="377.333602" style="stroke: #000000; stroke-width: 0.8"/>
      </g>
     </g>
     <g id="text_29">
      <!-- 0.2 -->
      <g transform="translate(33.276875 381.132821) scale(0.1 -0.1)">
       <use xlink:href="#DejaVuSans-30"/>
       <use xlink:href="#DejaVuSans-2e" transform="translate(63.623047 0)"/>
       <use xlink:href="#DejaVuSans-32" transform="translate(95.410156 0)"/>
      </g>
     </g>
    </g>
    <g id="ytick_11">
     <g id="line2d_27">
      <g>
       <use xlink:href="#m98b55a6c00" x="56.18" y="347.009747" style="stroke: #000000; stroke-width: 0.8"/>
      </g>
     </g>
     <g id="text_30">
      <!-- 0.4 -->
      <g transform="translate(33.276875 350.808966) scale(0.1 -0.1)">
       <use xlink:href="#DejaVuSans-30"/>
       <use xlink:href="#DejaVuSans-2e" transform="translate(63.623047 0)"/>
       <use xlink:href="#DejaVuSans-34" transform="translate(95.410156 0)"/>
      </g>
     </g>
    </g>
    <g id="ytick_12">
     <g id="line2d_28">
      <g>
       <use xlink:href="#m98b55a6c00" x="56.18" y="316.685892" style="stroke: #000000; stroke-width: 0.8"/>
      </g>
     </g>
     <g id="text_31">
      <!-- 0.6 -->
      <g transform="translate(33.276875 320.485111) scale(0.1 -0.1)">
       <use xlink:href="#DejaVuSans-30"/>
       <use xlink:href="#DejaVuSans-2e" transform="translate(63.623047 0)"/>
       <use xlink:href="#DejaVuSans-36" transform="translate(95.410156 0)"/>
      </g>
     </g>
    </g>
    <g id="ytick_13">
     <g id="line2d_29">
      <g>
       <use xlink:href="#m98b55a6c00" x="56.18" y="286.362037" style="stroke: #000000; stroke-width: 0.8"/>
      </g>
     </g>
     <g id="text_32">
      <!-- 0.8 -->
      <g transform="translate(33.276875 290.161256) scale(0.1 -0.1)">
       <use xlink:href="#DejaVuSans-30"/>
       <use xlink:href="#DejaVuSans-2e" transform="translate(63.623047 0)"/>
       <use xlink:href="#DejaVuSans-38" transform="translate(95.410156 0)"/>
      </g>
     </g>
    </g>
    <g id="ytick_14">
     <g id="line2d_30">
      <g>
       <use xlink:href="#m98b55a6c00" x="56.18" y="256.038182" style="stroke: #000000; stroke-width: 0.8"/>
      </g>
     </g>
     <g id="text_33">
      <!-- 1.0 -->
      <g transform="translate(33.276875 259.837401) scale(0.1 -0.1)">
       <use xlink:href="#DejaVuSans-31"/>
       <use xlink:href="#DejaVuSans-2e" transform="translate(63.623047 0)"/>
       <use xlink:href="#DejaVuSans-30" transform="translate(95.410156 0)"/>
      </g>
     </g>
    </g>
    <g id="text_34">
     <!-- Amplitude -->
     <g transform="translate(18.8175 370.042656) rotate(-90) scale(0.1 -0.1)">
      <use xlink:href="#DejaVuSans-41"/>
      <use xlink:href="#DejaVuSans-6d" transform="translate(68.408203 0)"/>
      <use xlink:href="#DejaVuSans-70" transform="translate(165.820312 0)"/>
      <use xlink:href="#DejaVuSans-6c" transform="translate(229.296875 0)"/>
      <use xlink:href="#DejaVuSans-69" transform="translate(257.080078 0)"/>
      <use xlink:href="#DejaVuSans-74" transform="translate(284.863281 0)"/>
      <use xlink:href="#DejaVuSans-75" transform="translate(324.072266 0)"/>
      <use xlink:href="#DejaVuSans-64" transform="translate(387.451172 0)"/>
      <use xlink:href="#DejaVuSans-65" transform="translate(450.927734 0)"/>
     </g>
    </g>
   </g>
   <g id="line2d_31">
    <path d="M 79.317273 407.657458 
L 161.051755 407.767847 
L 166.900039 408.150308 
L 173.550103 408.814919 
L 183.454455 409.805019 
L 187.392614 409.953885 
L 190.811973 409.863841 
L 193.806861 409.566685 
L 196.801748 409.050202 
L 199.655144 408.332947 
L 202.767941 407.322008 
L 206.069391 406.011051 
L 210.644258 403.940598 
L 216.681196 401.220795 
L 219.605338 400.150853 
L 221.916354 399.529479 
L 224.062296 399.180101 
L 226.019585 399.085042 
L 227.764637 399.217129 
L 229.556853 399.578539 
L 231.301906 400.155696 
L 232.999795 400.948554 
L 234.744847 402.016489 
L 236.63139 403.43378 
L 238.588679 405.190412 
L 240.616713 407.319001 
L 243.045637 410.19771 
L 245.828288 413.853946 
L 255.567567 427.026411 
L 257.501274 429.10526 
L 259.222745 430.64424 
L 260.731979 431.700248 
L 262.028977 432.348973 
L 263.208067 432.69285 
L 264.363575 432.801763 
L 265.471919 432.685752 
L 266.556681 432.348554 
L 267.617862 431.786688 
L 268.679042 430.966056 
L 269.83455 429.777453 
L 271.084385 428.166167 
L 272.381383 426.125223 
L 273.725545 423.586612 
L 275.116871 420.459383 
L 276.720432 416.276157 
L 278.441903 411.150115 
L 280.186955 405.240784 
L 282.09708 397.936619 
L 284.408096 388.19973 
L 286.742693 377.374104 
L 289.949816 361.255553 
L 293.770066 340.92638 
L 299.311787 311.552728 
L 301.952947 298.540473 
L 304.476198 287.186907 
L 306.504232 278.999249 
L 308.272867 272.80558 
L 309.923592 267.784787 
L 311.432826 263.871003 
L 312.659079 261.269516 
L 313.814587 259.327007 
L 314.922931 257.876263 
L 315.913366 256.930116 
L 316.833056 256.344094 
L 317.658419 256.072164 
L 318.389454 256.061327 
L 319.144072 256.279363 
L 319.993016 256.770098 
L 320.912706 257.571886 
L 321.879559 258.723821 
L 322.964321 260.381014 
L 324.049084 262.447583 
L 325.228173 265.198057 
L 326.690244 269.210738 
L 328.270224 274.216759 
L 329.968113 280.344505 
L 331.783911 287.794098 
L 334.165671 298.540473 
L 336.712505 311.067877 
L 340.980809 333.565586 
L 348.102509 371.08618 
L 350.979487 384.919864 
L 353.361248 395.250117 
L 355.648682 404.21026 
L 357.488061 410.547082 
L 359.303859 416.012527 
L 361.048911 420.573569 
L 362.534564 423.875687 
L 363.949471 426.48566 
L 365.317215 428.560854 
L 366.637795 430.172443 
L 367.840467 431.307506 
L 368.948811 432.053929 
L 370.057155 432.530661 
L 371.165499 432.768101 
L 372.273843 432.780767 
L 373.429351 432.570924 
L 374.584859 432.133294 
L 375.858275 431.40193 
L 377.320346 430.295904 
L 378.94749 428.774914 
L 380.810451 426.721934 
L 383.121466 423.81236 
L 386.517244 419.137106 
L 392.341946 411.124517 
L 395.03027 407.852223 
L 397.341285 405.375538 
L 399.345737 403.550997 
L 401.303026 402.064779 
L 403.165987 400.923184 
L 404.887458 400.127807 
L 406.656092 399.553822 
L 408.448308 399.204341 
L 410.216942 399.084004 
L 412.103486 399.185154 
L 414.155101 399.519354 
L 416.371789 400.106104 
L 419.01295 401.05022 
L 422.503055 402.553972 
L 432.430988 406.97961 
L 435.61453 408.080002 
L 438.703744 408.915036 
L 441.580722 409.461444 
L 444.646355 409.817329 
L 447.759151 409.951462 
L 451.367165 409.880353 
L 455.753378 409.55296 
L 463.724023 408.687807 
L 470.916468 408.017766 
L 476.882661 407.693489 
L 483.650635 407.562111 
L 495.087803 407.606677 
L 518.032884 407.658032 
L 542.062727 407.657458 
L 542.062727 407.657458 
" clip-path="url(#pdba7d0c653)" style="fill: none; stroke: #ff0000; stroke-width: 0.5; stroke-linecap: square"/>
   </g>
   <g id="patch_9">
    <path d="M 56.18 441.64 
L 56.18 247.2 
" style="fill: none; stroke: #000000; stroke-width: 0.8; stroke-linejoin: miter; stroke-linecap: square"/>
   </g>
   <g id="patch_10">
    <path d="M 565.2 441.64 
L 565.2 247.2 
" style="fill: none; stroke: #000000; stroke-width: 0.8; stroke-linejoin: miter; stroke-linecap: square"/>
   </g>
   <g id="patch_11">
    <path d="M 56.18 441.64 
L 565.2 441.64 
" style="fill: none; stroke: #000000; stroke-width: 0.8; stroke-linejoin: miter; stroke-linecap: square"/>
   </g>
   <g id="patch_12">
    <path d="M 56.18 247.2 
L 565.2 247.2 
" style="fill: none; stroke: #000000; stroke-width: 0.8; stroke-linejoin: miter; stroke-linecap: square"/>
   </g>
   <g id="patch_13">
    <path d="M 318.059309 327.845952 
Q 318.059309 311.893935 318.059309 297.059951 
" style="fill: none; stroke: #000000; stroke-linecap: round"/>
    <path d="M 316.059309 301.059951 
L 318.059309 297.059951 
L 320.059309 301.059951 
" style="fill: none; stroke: #000000; stroke-linecap: round"/>
   </g>
   <g id="text_35">
    <!-- 10.12 -->
    <g transform="translate(303.745247 339.446257) scale(0.1 -0.1)">
     <use xlink:href="#DejaVuSans-31"/>
     <use xlink:href="#DejaVuSans-30" transform="translate(63.623047 0)"/>
     <use xlink:href="#DejaVuSans-2e" transform="translate(127.246094 0)"/>
     <use xlink:href="#DejaVuSans-31" transform="translate(159.033203 0)"/>
     <use xlink:href="#DejaVuSans-32" transform="translate(222.65625 0)"/>
    </g>
   </g>
  </g>
  <g id="axes_3">
   <g id="patch_14">
    <path d="M 56.18 678.04 
L 565.2 678.04 
L 565.2 483.6 
L 56.18 483.6 
z
" style="fill: #ffffff"/>
   </g>
   <g id="matplotlib.axis_5">
    <g id="xtick_16">
     <g id="line2d_32">
      <g>
       <use xlink:href="#ma609494806" x="79.317273" y="678.04" style="stroke: #000000; stroke-width: 0.8"/>
      </g>
     </g>
     <g id="text_36">
      <!-- 0 -->
      <g transform="translate(76.136023 692.638438) scale(0.1 -0.1)">
       <use xlink:href="#DejaVuSans-30"/>
      </g>
     </g>
    </g>
    <g id="xtick_17">
     <g id="line2d_33">
      <g>
       <use xlink:href="#ma609494806" x="144.282239" y="678.04" style="stroke: #000000; stroke-width: 0.8"/>
      </g>
     </g>
     <g id="text_37">
      <!-- 2 -->
      <g transform="translate(141.100989 692.638438) scale(0.1 -0.1)">
       <use xlink:href="#DejaVuSans-32"/>
      </g>
     </g>
    </g>
    <g id="xtick_18">
     <g id="line2d_34">
      <g>
       <use xlink:href="#ma609494806" x="209.247205" y="678.04" style="stroke: #000000; stroke-width: 0.8"/>
      </g>
     </g>
     <g id="text_38">
      <!-- 4 -->
      <g transform="translate(206.065955 692.638438) scale(0.1 -0.1)">
       <use xlink:href="#DejaVuSans-34"/>
      </g>
     </g>
    </g>
    <g id="xtick_19">
     <g id="line2d_35">
      <g>
       <use xlink:href="#ma609494806" x="274.212171" y="678.04" style="stroke: #000000; stroke-width: 0.8"/>
      </g>
     </g>
     <g id="text_39">
      <!-- 6 -->
      <g transform="translate(271.030921 692.638438) scale(0.1 -0.1)">
       <use xlink:href="#DejaVuSans-36"/>
      </g>
     </g>
    </g>
    <g id="xtick_20">
     <g id="line2d_36">
      <g>
       <use xlink:href="#ma609494806" x="339.177138" y="678.04" style="stroke: #000000; stroke-width: 0.8"/>
      </g>
     </g>
     <g id="text_40">
      <!-- 8 -->
      <g transform="translate(335.995888 692.638438) scale(0.1 -0.1)">
       <use xlink:href="#DejaVuSans-38"/>
      </g>
     </g>
    </g>
    <g id="xtick_21">
     <g id="line2d_37">
      <g>
       <use xlink:href="#ma609494806" x="404.142104" y="678.04" style="stroke: #000000; stroke-width: 0.8"/>
      </g>
     </g>
     <g id="text_41">
      <!-- 10 -->
      <g transform="translate(397.779604 692.638438) scale(0.1 -0.1)">
       <use xlink:href="#DejaVuSans-31"/>
       <use xlink:href="#DejaVuSans-30" transform="translate(63.623047 0)"/>
      </g>
     </g>
    </g>
    <g id="xtick_22">
     <g id="line2d_38">
      <g>
       <use xlink:href="#ma609494806" x="469.10707" y="678.04" style="stroke: #000000; stroke-width: 0.8"/>
      </g>
     </g>
     <g id="text_42">
      <!-- 12 -->
      <g transform="translate(462.74457 692.638438) scale(0.1 -0.1)">
       <use xlink:href="#DejaVuSans-31"/>
       <use xlink:href="#DejaVuSans-32" transform="translate(63.623047 0)"/>
      </g>
     </g>
    </g>
    <g id="xtick_23">
     <g id="line2d_39">
      <g>
       <use xlink:href="#ma609494806" x="534.072036" y="678.04" style="stroke: #000000; stroke-width: 0.8"/>
      </g>
     </g>
     <g id="text_43">
      <!-- 14 -->
      <g transform="translate(527.709536 692.638438) scale(0.1 -0.1)">
       <use xlink:href="#DejaVuSans-31"/>
       <use xlink:href="#DejaVuSans-34" transform="translate(63.623047 0)"/>
      </g>
     </g>
    </g>
    <g id="text_44">
     <!-- Samples at 192000 Hz -->
     <g transform="translate(254.073594 706.316563) scale(0.1 -0.1)">
      <use xlink:href="#DejaVuSans-53"/>
      <use xlink:href="#DejaVuSans-61" transform="translate(63.476562 0)"/>
      <use xlink:href="#DejaVuSans-6d" transform="translate(124.755859 0)"/>
      <use xlink:href="#DejaVuSans-70" transform="translate(222.167969 0)"/>
      <use xlink:href="#DejaVuSans-6c" transform="translate(285.644531 0)"/>
      <use xlink:href="#DejaVuSans-65" transform="translate(313.427734 0)"/>
      <use xlink:href="#DejaVuSans-73" transform="translate(374.951172 0)"/>
      <use xlink:href="#DejaVuSans-20" transform="translate(427.050781 0)"/>
      <use xlink:href="#DejaVuSans-61" transform="translate(458.837891 0)"/>
      <use xlink:href="#DejaVuSans-74" transform="translate(520.117188 0)"/>
      <use xlink:href="#DejaVuSans-20" transform="translate(559.326172 0)"/>
      <use xlink:href="#DejaVuSans-31" transform="translate(591.113281 0)"/>
      <use xlink:href="#DejaVuSans-39" transform="translate(654.736328 0)"/>
      <use xlink:href="#DejaVuSans-32" transform="translate(718.359375 0)"/>
      <use xlink:href="#DejaVuSans-30" transform="translate(781.982422 0)"/>
      <use xlink:href="#DejaVuSans-30" transform="translate(845.605469 0)"/>
      <use xlink:href="#DejaVuSans-30" transform="translate(909.228516 0)"/>
      <use xlink:href="#DejaVuSans-20" transform="translate(972.851562 0)"/>
      <use xlink:href="#DejaVuSans-48" transform="translate(1004.638672 0)"/>
      <use xlink:href="#DejaVuSans-7a" transform="translate(1079.833984 0)"/>
     </g>
    </g>
   </g>
   <g id="matplotlib.axis_6">
    <g id="ytick_15">
     <g id="line2d_40">
      <g>
       <use xlink:href="#m98b55a6c00" x="56.18" y="654.805968" style="stroke: #000000; stroke-width: 0.8"/>
      </g>
     </g>
     <g id="text_45">
      <!-- 0.0 -->
      <g transform="translate(33.276875 658.605187) scale(0.1 -0.1)">
       <use xlink:href="#DejaVuSans-30"/>
       <use xlink:href="#DejaVuSans-2e" transform="translate(63.623047 0)"/>
       <use xlink:href="#DejaVuSans-30" transform="translate(95.410156 0)"/>
      </g>
     </g>
    </g>
    <g id="ytick_16">
     <g id="line2d_41">
      <g>
       <use xlink:href="#m98b55a6c00" x="56.18" y="622.332411" style="stroke: #000000; stroke-width: 0.8"/>
      </g>
     </g>
     <g id="text_46">
      <!-- 0.2 -->
      <g transform="translate(33.276875 626.131629) scale(0.1 -0.1)">
       <use xlink:href="#DejaVuSans-30"/>
       <use xlink:href="#DejaVuSans-2e" transform="translate(63.623047 0)"/>
       <use xlink:href="#DejaVuSans-32" transform="translate(95.410156 0)"/>
      </g>
     </g>
    </g>
    <g id="ytick_17">
     <g id="line2d_42">
      <g>
       <use xlink:href="#m98b55a6c00" x="56.18" y="589.858853" style="stroke: #000000; stroke-width: 0.8"/>
      </g>
     </g>
     <g id="text_47">
      <!-- 0.4 -->
      <g transform="translate(33.276875 593.658072) scale(0.1 -0.1)">
       <use xlink:href="#DejaVuSans-30"/>
       <use xlink:href="#DejaVuSans-2e" transform="translate(63.623047 0)"/>
       <use xlink:href="#DejaVuSans-34" transform="translate(95.410156 0)"/>
      </g>
     </g>
    </g>
    <g id="ytick_18">
     <g id="line2d_43">
      <g>
       <use xlink:href="#m98b55a6c00" x="56.18" y="557.385296" style="stroke: #000000; stroke-width: 0.8"/>
      </g>
     </g>
     <g id="text_48">
      <!-- 0.6 -->
      <g transform="translate(33.276875 561.184515) scale(0.1 -0.1)">
       <use xlink:href="#DejaVuSans-30"/>
       <use xlink:href="#DejaVuSans-2e" transform="translate(63.623047 0)"/>
       <use xlink:href="#DejaVuSans-36" transform="translate(95.410156 0)"/>
      </g>
     </g>
    </g>
    <g id="ytick_19">
     <g id="line2d_44">
      <g>
       <use xlink:href="#m98b55a6c00" x="56.18" y="524.911739" style="stroke: #000000; stroke-width: 0.8"/>
      </g>
     </g>
     <g id="text_49">
      <!-- 0.8 -->
      <g transform="translate(33.276875 528.710958) scale(0.1 -0.1)">
       <use xlink:href="#DejaVuSans-30"/>
       <use xlink:href="#DejaVuSans-2e" transform="translate(63.623047 0)"/>
       <use xlink:href="#DejaVuSans-38" transform="translate(95.410156 0)"/>
      </g>
     </g>
    </g>
    <g id="ytick_20">
     <g id="line2d_45">
      <g>
       <use xlink:href="#m98b55a6c00" x="56.18" y="492.438182" style="stroke: #000000; stroke-width: 0.8"/>
      </g>
     </g>
     <g id="text_50">
      <!-- 1.0 -->
      <g transform="translate(33.276875 496.237401) scale(0.1 -0.1)">
       <use xlink:href="#DejaVuSans-31"/>
       <use xlink:href="#DejaVuSans-2e" transform="translate(63.623047 0)"/>
       <use xlink:href="#DejaVuSans-30" transform="translate(95.410156 0)"/>
      </g>
     </g>
    </g>
    <g id="text_51">
     <!-- Amplitude -->
     <g transform="translate(27.197188 606.442656) rotate(-90) scale(0.1 -0.1)">
      <use xlink:href="#DejaVuSans-41"/>
      <use xlink:href="#DejaVuSans-6d" transform="translate(68.408203 0)"/>
      <use xlink:href="#DejaVuSans-70" transform="translate(165.820312 0)"/>
      <use xlink:href="#DejaVuSans-6c" transform="translate(229.296875 0)"/>
      <use xlink:href="#DejaVuSans-69" transform="translate(257.080078 0)"/>
      <use xlink:href="#DejaVuSans-74" transform="translate(284.863281 0)"/>
      <use xlink:href="#DejaVuSans-75" transform="translate(324.072266 0)"/>
      <use xlink:href="#DejaVuSans-64" transform="translate(387.451172 0)"/>
      <use xlink:href="#DejaVuSans-65" transform="translate(450.927734 0)"/>
     </g>
    </g>
   </g>
   <g id="line2d_46">
    <path d="M 79.317273 654.805968 
L 151.298455 654.695253 
L 171.63249 654.542212 
L 177.284442 654.7618 
L 181.896954 655.160827 
L 186.054712 655.737645 
L 190.08254 656.521704 
L 194.110368 657.533752 
L 198.073231 658.759472 
L 202.166024 660.257231 
L 207.298256 662.394849 
L 216.913071 666.410558 
L 220.875934 667.818428 
L 223.669428 668.590758 
L 226.008167 669.015678 
L 228.216975 669.193212 
L 230.360819 669.143535 
L 232.439698 668.872617 
L 234.453612 668.381093 
L 236.402561 667.669716 
L 238.286545 666.738486 
L 240.105564 665.583652 
L 241.859618 664.204129 
L 243.678637 662.478977 
L 245.562621 660.374177 
L 247.576535 657.776119 
L 249.655414 654.720691 
L 251.799258 651.16329 
L 254.008067 647.057866 
L 256.281841 642.359467 
L 258.62058 637.011542 
L 261.089248 630.797074 
L 263.882742 623.134008 
L 267.00106 613.921557 
L 270.444203 603.040734 
L 274.666926 588.910461 
L 280.708668 567.805479 
L 286.685445 547.240529 
L 290.388448 535.233462 
L 293.571731 525.670358 
L 296.30026 518.150683 
L 298.638999 512.332042 
L 300.782843 507.578878 
L 302.796757 503.638062 
L 304.615776 500.540047 
L 306.304865 498.091667 
L 307.864024 496.219512 
L 309.293253 494.832941 
L 310.657518 493.799491 
L 311.956817 493.079081 
L 313.191151 492.639555 
L 314.360521 492.451018 
L 315.52989 492.488838 
L 316.699259 492.752038 
L 317.933594 493.267859 
L 319.232893 494.06597 
L 320.597157 495.180095 
L 322.026387 496.652232 
L 323.520581 498.528993 
L 325.07974 500.849786 
L 326.833794 503.876565 
L 328.717778 507.578878 
L 330.731692 512.027831 
L 332.875536 517.305068 
L 335.344205 524.001151 
L 338.202663 532.423232 
L 341.385947 542.509531 
L 345.478739 556.285613 
L 352.494956 580.811535 
L 357.627188 598.340183 
L 361.590051 611.115473 
L 364.968229 621.268631 
L 368.021583 629.765378 
L 370.685146 636.541875 
L 373.153815 642.218058 
L 375.557519 647.185025 
L 377.831293 651.390828 
L 380.040101 655.023448 
L 382.183945 658.131295 
L 384.262824 660.759799 
L 386.211773 662.874235 
L 388.030792 664.534404 
L 389.849811 665.897633 
L 391.66883 666.986702 
L 393.552814 667.857622 
L 395.501763 668.51292 
L 397.515677 668.951619 
L 399.594556 669.172943 
L 401.7384 669.175273 
L 403.947209 668.951395 
L 406.285948 668.482543 
L 409.014476 667.693018 
L 412.58755 666.410558 
L 417.784747 664.289374 
L 429.543406 659.420491 
L 433.636199 658.048266 
L 437.599062 656.94992 
L 441.626889 656.063827 
L 445.654717 655.40294 
L 449.942405 654.929977 
L 454.684848 654.635253 
L 460.59666 654.507764 
L 469.49686 654.559064 
L 493.793757 654.801692 
L 542.062727 654.805968 
L 542.062727 654.805968 
" clip-path="url(#p1302b6d511)" style="fill: none; stroke: #ff0000; stroke-width: 0.5; stroke-linecap: square"/>
   </g>
   <g id="patch_15">
    <path d="M 56.18 678.04 
L 56.18 483.6 
" style="fill: none; stroke: #000000; stroke-width: 0.8; stroke-linejoin: miter; stroke-linecap: square"/>
   </g>
   <g id="patch_16">
    <path d="M 565.2 678.04 
L 565.2 483.6 
" style="fill: none; stroke: #000000; stroke-width: 0.8; stroke-linejoin: miter; stroke-linecap: square"/>
   </g>
   <g id="patch_17">
    <path d="M 56.18 678.04 
L 565.2 678.04 
" style="fill: none; stroke: #000000; stroke-width: 0.8; stroke-linejoin: miter; stroke-linecap: square"/>
   </g>
   <g id="patch_18">
    <path d="M 56.18 483.6 
L 565.2 483.6 
" style="fill: none; stroke: #000000; stroke-width: 0.8; stroke-linejoin: miter; stroke-linecap: square"/>
   </g>
   <g id="patch_19">
    <path d="M 314.75031 569.618361 
Q 314.75031 552.322471 314.75031 536.144615 
" style="fill: none; stroke: #000000; stroke-linecap: round"/>
    <path d="M 312.75031 540.144615 
L 314.75031 536.144615 
L 316.75031 540.144615 
" style="fill: none; stroke: #000000; stroke-linecap: round"/>
   </g>
   <g id="text_52">
    <!--  7.25 -->
    <g transform="translate(302.028435 581.220512) scale(0.1 -0.1)">
     <use xlink:href="#DejaVuSans-20"/>
     <use xlink:href="#DejaVuSans-37" transform="translate(31.787109 0)"/>
     <use xlink:href="#DejaVuSans-2e" transform="translate(95.410156 0)"/>
     <use xlink:href="#DejaVuSans-32" transform="translate(127.197266 0)"/>
     <use xlink:href="#DejaVuSans-35" transform="translate(190.820312 0)"/>
    </g>
   </g>
  </g>
 </g>
 <defs>
  <clipPath id="pc32f2bc3e7">
   <rect x="56.18" y="10.8" width="509.02" height="194.44"/>
  </clipPath>
  <clipPath id="pdba7d0c653">
   <rect x="56.18" y="247.2" width="509.02" height="194.44"/>
  </clipPath>
  <clipPath id="p1302b6d511">
   <rect x="56.18" y="483.6" width="509.02" height="194.44"/>
  </clipPath>
 </defs>
</svg>
